<svg width="25" height="14" viewBox="0 0 25 14" fill="none" xmlns="http://www.w3.org/2000/svg">
<path d="M21.0938 7.77778C21.0938 7.31111 21.4062 7 21.875 7H24.6875C24.0625 5.6 22.7344 4.66667 21.0938 4.66667H19.1406L16.4062 1.4C15.625 0.544445 14.5313 0 13.3594 0H7.42188C5.9375 0 4.60937 0.855556 3.90625 2.17778L2.65625 4.66667H2.34375C1.01562 4.66667 0 5.67778 0 7V10.1111C0 10.9667 0.703125 11.6667 1.5625 11.6667H2.42187C2.73437 12.9889 3.98438 14 5.46875 14C6.95312 14 8.125 12.9889 8.51562 11.6667H15C15.3125 12.9889 16.5625 14 18.0469 14C19.5313 14 20.7031 12.9889 21.0938 11.6667H23.4375C24.2969 11.6667 25 10.9667 25 10.1111V8.55556H21.875C21.4062 8.55556 21.0938 8.24444 21.0938 7.77778ZM5.46875 12.4444C4.60937 12.4444 3.90625 11.7444 3.90625 10.8889C3.90625 10.0333 4.60937 9.33333 5.46875 9.33333C6.32813 9.33333 7.03125 10.0333 7.03125 10.8889C7.03125 11.7444 6.32813 12.4444 5.46875 12.4444ZM7.34375 4.66667H4.375L5.3125 2.87778C5.70313 2.1 6.48437 1.55556 7.42188 1.55556H8.90625L7.34375 4.66667ZM9.0625 4.66667L10.625 1.55556H13.3594C14.0625 1.55556 14.6875 1.86667 15.1562 2.41111L17.0312 4.66667H9.0625ZM17.9688 12.4444C17.1094 12.4444 16.4062 11.7444 16.4062 10.8889C16.4062 10.0333 17.1094 9.33333 17.9688 9.33333C18.8281 9.33333 19.5312 10.0333 19.5312 10.8889C19.5312 11.7444 18.8281 12.4444 17.9688 12.4444Z" fill="#585858"/>
</svg>
