<svg width="25" height="14" viewBox="0 0 25 14" fill="none" xmlns="http://www.w3.org/2000/svg">
<path d="M0.152329 13.246L0.0793266 11.4357L13.6415 11.1169C14.0621 11.1031 14.4801 11.0299 14.8829 10.899C16.632 10.3297 18.449 10.041 20.2833 10.041C20.5946 10.041 20.9087 10.0495 21.217 10.0661L24.3652 10.2355L23.3041 13.4661C23.1993 13.7852 22.9098 13.9997 22.5839 13.9997H0.912107C0.504541 13.9997 0.169294 13.6671 0.152329 13.246Z" fill="#585858"/>
<path d="M2.58863 9.41228V7.42512C2.58863 7.13861 2.40906 6.90658 2.18735 6.90658H1.05624C0.834577 6.90658 0.655001 6.67456 0.655001 6.38834V5.53973C0.655001 5.25351 0.834577 5.02148 1.05624 5.02148H12.8045C12.9411 5.02148 13.0683 5.11105 13.1422 5.25946L13.8952 6.77249H22.2806C22.4305 6.77249 22.552 6.89811 22.552 7.05309C22.552 7.20807 22.4305 7.3337 22.2806 7.3337H21.6477V8.12351L25 8.30377L24.5373 9.71255L21.2436 9.5353C20.9235 9.51806 20.6031 9.50962 20.2834 9.50962C18.4009 9.50962 16.5276 9.80646 14.7284 10.392C14.3711 10.5082 13.9998 10.5736 13.6252 10.5858L6.79836 10.7465L2.60045 10.8451L0.0578343 10.9049L6.05329e-07 9.47327L2.58863 9.41228ZM20.2243 8.0765C20.244 8.07642 20.2637 8.07609 20.2833 8.07609C20.5569 8.07609 20.831 8.08267 21.1049 8.09526V7.3337H20.2243V8.0765H20.2243ZM18.801 8.13801C19.094 8.11363 19.3876 8.09657 19.6816 8.08664V7.3337H18.801V8.13801ZM17.3928 8.27065C17.6816 8.24724 17.9701 8.22055 18.2583 8.19045V7.3337H17.3928V8.27065ZM15.9544 8.36126C16.2531 8.3477 16.5517 8.33097 16.8501 8.3109V7.3337H15.9544V8.36126ZM14.7052 8.40021C14.9407 8.39616 15.1762 8.39018 15.4116 8.38248V7.33373H14.1744L14.7052 8.40021ZM11.2709 7.93363C11.2709 8.04197 11.3557 8.12998 11.4605 8.12998H12.3103C12.415 8.12998 12.4998 8.04201 12.4998 7.93363V7.59795C12.4998 7.48961 12.415 7.40193 12.3103 7.40193H11.4605C11.3557 7.40193 11.2709 7.48961 11.2709 7.59795V7.93363ZM11.2709 6.49385C11.2709 6.60219 11.3557 6.6902 11.4605 6.6902H12.3103C12.415 6.6902 12.4998 6.60219 12.4998 6.49385V6.15817C12.4998 6.04983 12.415 5.96216 12.3103 5.96216H11.4605C11.3557 5.96216 11.2709 6.04983 11.2709 6.15817V6.49385ZM9.3243 7.93363C9.3243 8.04197 9.40938 8.12998 9.51416 8.12998H10.3639C10.4687 8.12998 10.5535 8.04201 10.5535 7.93363V7.59795C10.5535 7.48961 10.4687 7.40193 10.3639 7.40193H9.51416C9.40938 7.40193 9.3243 7.48961 9.3243 7.59795V7.93363ZM9.3243 6.49385C9.3243 6.60219 9.40938 6.6902 9.51416 6.6902H10.3639C10.4687 6.6902 10.5535 6.60219 10.5535 6.49385V6.15817C10.5535 6.04983 10.4687 5.96216 10.3639 5.96216H9.51416C9.40938 5.96216 9.3243 6.04983 9.3243 6.15817V6.49385ZM7.37799 7.93363C7.37799 8.04197 7.4631 8.12998 7.56788 8.12998H8.41762C8.5224 8.12998 8.60719 8.04201 8.60719 7.93363V7.59795C8.60719 7.48961 8.5224 7.40193 8.41762 7.40193H7.56788C7.46306 7.40193 7.37799 7.48961 7.37799 7.59795V7.93363ZM7.37799 6.49385C7.37799 6.60219 7.4631 6.6902 7.56788 6.6902H8.41762C8.5224 6.6902 8.60719 6.60219 8.60719 6.49385V6.15817C8.60719 6.04983 8.5224 5.96216 8.41762 5.96216H7.56788C7.46306 5.96216 7.37799 6.04983 7.37799 6.15817V6.49385ZM5.43167 7.93363C5.43167 8.04197 5.51675 8.12998 5.62124 8.12998H6.47131C6.57612 8.12998 6.66087 8.04201 6.66087 7.93363V7.59795C6.66087 7.48961 6.57612 7.40193 6.47131 7.40193H5.62124C5.51675 7.40193 5.43167 7.48961 5.43167 7.59795V7.93363ZM5.43167 6.49385C5.43167 6.60219 5.51675 6.6902 5.62124 6.6902H6.47131C6.57612 6.6902 6.66087 6.60219 6.66087 6.49385V6.15817C6.66087 6.04983 6.57612 5.96216 6.47131 5.96216H5.62124C5.51675 5.96216 5.43167 6.04983 5.43167 6.15817V6.49385ZM3.48535 7.93363C3.48535 8.04197 3.57014 8.12998 3.67492 8.12998H4.52499C4.62948 8.12998 4.71456 8.04201 4.71456 7.93363V7.59795C4.71456 7.48961 4.62944 7.40193 4.52499 7.40193H3.67492C3.57014 7.40193 3.48535 7.48961 3.48535 7.59795V7.93363ZM3.48535 6.49385C3.48535 6.60219 3.57014 6.6902 3.67492 6.6902H4.52499C4.62948 6.6902 4.71456 6.60219 4.71456 6.49385V6.15817C4.71456 6.04983 4.62944 5.96216 4.52499 5.96216H3.67492C3.57014 5.96216 3.48535 6.04983 3.48535 6.15817V6.49385Z" fill="#585858"/>
<path d="M5.45197 0H6.47874C6.54452 0 6.60199 0.0458628 6.61863 0.111647L7.0799 2.00841H8.53713C8.74578 2.00841 8.93233 2.14244 9.00533 2.3444L9.76784 4.45807C9.77147 4.4684 9.77481 4.47843 9.77783 4.48877H2.43406V2.5251C2.43406 2.23981 2.65756 2.00841 2.93347 2.00841H3.94273L3.69946 1.04775C3.67549 0.952974 3.74461 0.860319 3.83936 0.860319H4.86612C4.9319 0.860319 4.98938 0.906182 5.00605 0.971966L5.26852 2.00838H5.7549L5.31208 0.187353C5.28807 0.0926544 5.35719 0 5.45197 0ZM7.37816 3.49896C7.37816 3.6073 7.46327 3.69497 7.56805 3.69497H8.41779C8.52257 3.69497 8.60736 3.6073 8.60736 3.49896V3.16328C8.60736 3.05494 8.52257 2.96693 8.41779 2.96693H7.56805C7.46324 2.96693 7.37816 3.05494 7.37816 3.16328V3.49896ZM4.71473 3.16328C4.71473 3.05494 4.62961 2.96693 4.52516 2.96693H3.67509C3.57032 2.96693 3.48553 3.05494 3.48553 3.16328V3.49896C3.48553 3.6073 3.57032 3.69497 3.67509 3.69497H4.52516C4.62965 3.69497 4.71473 3.6073 4.71473 3.49896V3.16328ZM5.62141 2.96693C5.51692 2.96693 5.43184 3.05494 5.43184 3.16328V3.49896C5.43184 3.6073 5.51692 3.69497 5.62141 3.69497H6.47148C6.57629 3.69497 6.66104 3.6073 6.66104 3.49896V3.16328C6.66104 3.05494 6.57629 2.96693 6.47148 2.96693H5.62141Z" fill="#585858"/>
</svg>
